# xmcd CD database file generated by MAGIX-FreeDB- v3.0beta1
#
# Track frame offsets:
#	150
#	22017
#	40168
#	57118
#	74477
#	95714
#	113205
#	132945
#	150921
#	166187
#	184642
#	201008
#	218275
#	235277
#	253596
#	271095
#	286345
#	303862
#	328505
#	346332
#
# Disc length: 4917
#
# Revision: 3
# Processed by: cddbd v1.5.2PL0 Copyright (c) Steve Scherf et al.
# Submitted via: MAGIX-FreeDB- v3.0beta1
#
DISCID=12133314
DTITLE=Various Artist - Bayern 1 Greatest Hits - Der Sound der 80er - CD 1
DYEAR=2016
DGENRE=Pop
TTITLE0=Freddie Mercury - I was born to love you
TTITLE1=Toto - Rosanna
TTITLE2=Cyndi Lauper - Girls just want to have fun
TTITLE3=Wham! - Wake me up before you go-go
TTITLE4=Alphaville - Big in Japan
TTITLE5=Status Quo - In the army now
TTITLE6=Culture Club - Do you really want to hurt me
TTITLE7=Peter Schilling - Major Tom (völlig losgelöst)
TTITLE8=Flying Pickets - Only you
TTITLE9=Jermaine Jackson and Pia Zadora - When the rain begins to fall
TTITLE10=Mike Oldfield - Moonlight shadow
TTITLE11=Visage - Fade to grey
TTITLE12=A-ha - Take on me
TTITLE13=Laura Branigan - Self control
TTITLE14=Real Life - Send me an angel
TTITLE15=Madness - Our house
TTITLE16=Bangles - Eternal flame
TTITLE17=Tina Turner - The best
TTITLE18=Europe - The final countdown
TTITLE19=Foreigner - I want to know what love is
EXTD=
EXTT0=
EXTT1=
EXTT2=
EXTT3=
EXTT4=
EXTT5=
EXTT6=
EXTT7=
EXTT8=
EXTT9=
EXTT10=
EXTT11=
EXTT12=
EXTT13=
EXTT14=
EXTT15=
EXTT16=
EXTT17=
EXTT18=
EXTT19=
PLAYORDER=
